# xmcd
#
# Track frame offsets: 
#        150
#        14816
#        30137
#        44035
#        57054
#        66375
#        75711
#        84999
#        97999
#        111249
#        123912
#        132357
#        141557
#        150865
#        160088
#        168598
#        180867
#        191010
#        202035
#        212799
#        226187
#        238052
#        251500
#        263238
#        274892
#        286700
#        297382
#        310219
#        320599
#        334219
#        347281
#
# Disc length: 4757 seconds
#
# Revision: 0
# Processed by: cddbd v1.5.2PL0 Copyright (c) Steve Scherf et al.
# Submitted via: ExactAudioCopy v0.95b3
#
DISCID=c112931f
DTITLE=The Guess Who  - Just A Matter Of Time [CD1]  FLAC
DYEAR=1900
DGENRE=
TTITLE0=I Didn't Have The Heart (Vers.1)
TTITLE1=I Didn't Have The Heart (Vers. 2)
TTITLE2=Tribute To Buddy Holly (Session)
TTITLE3=Tribute To Buddy Holly
TTITLE4=Back And Forth (Vers. 1)
TTITLE5=Back And Forth (Vers. 2)
TTITLE6=36-24-36
TTITLE7=Baby's Got A Brand New Beau
TTITLE8=Wild One
TTITLE9=Boston T
TTITLE10=Baby's Birthday (Mono)
TTITLE11=Use Your Imagination
TTITLE12=We Can't Go On This Way
TTITLE13=Just A Matter Of Time
TTITLE14=Baby's Birthday (Stereo)
TTITLE15=One Day (Scepter Version)
TTITLE16=World's Greatest Lover
TTITLE17=Scepter)
TTITLE18=Single Version)
TTITLE19=His Girl (Original Version)
TTITLE20=It's My Pride
TTITLE21=His Girl (Vers. 2 with Strings)
TTITLE22=Pretty Blue Eyes (Vers. 1)
TTITLE23=Pretty Blue Eyes (Vers. 2)
TTITLE24=Flying On The Ground
TTITLE25=This Time Long Ago
TTITLE26=There's No Getting Away
TTITLE27=Miss Felicity Gray
TTITLE28=If You Don't Want Me
TTITLE29=Tribute To Buddy Holly (Alt Remaster From Cassette)
TTITLE30=Back And Forth (Vers. 1, Cass. Remaster)
EXTD=
EXTT0=
EXTT1=
EXTT2=
EXTT3=
EXTT4=
EXTT5=
EXTT6=
EXTT7=
EXTT8=
EXTT9=
EXTT10=
EXTT11=
EXTT12=
EXTT13=
EXTT14=
EXTT15=
EXTT16=
EXTT17=
EXTT18=
EXTT19=
EXTT20=
EXTT21=
EXTT22=
EXTT23=
EXTT24=
EXTT25=
EXTT26=
EXTT27=
EXTT28=
EXTT29=
EXTT30=
PLAYORDER=
